<svg xmlns="http://www.w3.org/2000/svg" width="1536" height="1024" viewBox="0 0 1536 1024">
  <path d="M 1226.0 781.0 L 1226.0 797.0 L 1229.0 801.0 L 1247.0 800.0 L 1246.0 781.0 L 1242.0 782.0 L 1242.0 796.0 L 1238.0 799.0 L 1231.0 797.0 L 1230.0 781.0 Z M 1185.0 781.0 L 1184.0 800.0 L 1188.0 801.0 L 1189.0 782.0 Z M 1087.0 781.0 L 1094.0 791.0 L 1086.0 801.0 L 1090.0 801.0 L 1095.0 795.0 L 1106.0 801.0 L 1100.0 792.0 L 1106.0 781.0 L 1102.0 781.0 L 1096.0 787.0 L 1091.0 781.0 Z M 968.0 781.0 L 968.0 801.0 L 971.0 801.0 L 972.0 783.0 Z M 289.0 781.0 L 296.0 800.0 L 301.0 801.0 L 309.0 781.0 L 305.0 782.0 L 300.0 794.0 L 293.0 782.0 Z M 1280.0 781.0 L 1275.0 787.0 L 1276.0 797.0 L 1283.0 802.0 L 1294.0 801.0 L 1294.0 798.0 L 1284.0 799.0 L 1280.0 793.0 L 1295.0 792.0 L 1295.0 785.0 L 1288.0 780.0 Z M 1280.0 786.0 L 1288.0 783.0 L 1291.0 788.0 L 1281.0 789.0 Z M 1269.0 780.0 L 1256.0 782.0 L 1258.0 802.0 L 1261.0 801.0 L 1261.0 787.0 L 1270.0 783.0 Z M 1200.0 782.0 L 1197.0 786.0 L 1198.0 797.0 L 1205.0 802.0 L 1215.0 801.0 L 1216.0 798.0 L 1206.0 799.0 L 1201.0 794.0 L 1217.0 792.0 L 1216.0 784.0 L 1210.0 780.0 Z M 1201.0 787.0 L 1205.0 783.0 L 1213.0 786.0 L 1212.0 789.0 Z M 1176.0 780.0 L 1164.0 781.0 L 1164.0 801.0 L 1168.0 801.0 L 1168.0 788.0 L 1171.0 784.0 L 1177.0 783.0 Z M 1139.0 781.0 L 1134.0 788.0 L 1136.0 798.0 L 1143.0 802.0 L 1153.0 801.0 L 1153.0 798.0 L 1143.0 799.0 L 1139.0 793.0 L 1154.0 792.0 L 1154.0 785.0 L 1147.0 780.0 Z M 1138.0 787.0 L 1142.0 783.0 L 1147.0 783.0 L 1151.0 788.0 Z M 1033.0 784.0 L 1028.0 780.0 L 1014.0 781.0 L 1013.0 801.0 L 1017.0 801.0 L 1017.0 786.0 L 1022.0 783.0 L 1030.0 787.0 L 1030.0 801.0 L 1033.0 801.0 Z M 990.0 780.0 L 982.0 785.0 L 980.0 792.0 L 985.0 800.0 L 995.0 802.0 L 1003.0 797.0 L 1004.0 787.0 L 1000.0 782.0 Z M 990.0 783.0 L 996.0 784.0 L 1000.0 789.0 L 1000.0 794.0 L 995.0 799.0 L 988.0 798.0 L 984.0 791.0 Z M 919.0 782.0 L 920.0 785.0 L 929.0 783.0 L 932.0 787.0 L 919.0 791.0 L 918.0 800.0 L 935.0 801.0 L 935.0 784.0 L 929.0 780.0 Z M 921.0 797.0 L 923.0 792.0 L 932.0 794.0 L 928.0 799.0 Z M 882.0 780.0 L 874.0 785.0 L 872.0 792.0 L 878.0 801.0 L 887.0 802.0 L 895.0 797.0 L 896.0 787.0 L 892.0 782.0 Z M 882.0 783.0 L 887.0 783.0 L 892.0 788.0 L 892.0 794.0 L 887.0 799.0 L 881.0 799.0 L 876.0 792.0 Z M 851.0 781.0 L 848.0 784.0 L 849.0 790.0 L 861.0 797.0 L 848.0 799.0 L 854.0 802.0 L 862.0 801.0 L 865.0 794.0 L 852.0 785.0 L 864.0 783.0 L 858.0 780.0 Z M 754.0 781.0 L 751.0 784.0 L 752.0 790.0 L 761.0 793.0 L 763.0 798.0 L 752.0 797.0 L 751.0 800.0 L 765.0 801.0 L 767.0 793.0 L 757.0 789.0 L 755.0 785.0 L 766.0 782.0 Z M 726.0 782.0 L 722.0 788.0 L 724.0 798.0 L 732.0 802.0 L 741.0 801.0 L 741.0 798.0 L 729.0 798.0 L 727.0 793.0 L 742.0 792.0 L 742.0 785.0 L 734.0 780.0 Z M 726.0 787.0 L 730.0 783.0 L 736.0 783.0 L 739.0 788.0 Z M 667.0 782.0 L 676.0 783.0 L 679.0 788.0 L 667.0 791.0 L 665.0 799.0 L 670.0 802.0 L 683.0 801.0 L 683.0 784.0 L 676.0 780.0 Z M 680.0 794.0 L 676.0 799.0 L 669.0 797.0 L 671.0 792.0 L 677.0 791.0 Z M 651.0 780.0 L 642.0 782.0 L 638.0 787.0 L 640.0 798.0 L 648.0 803.0 L 646.0 809.0 L 658.0 798.0 L 647.0 799.0 L 642.0 794.0 L 642.0 788.0 L 647.0 783.0 L 658.0 784.0 Z M 615.0 781.0 L 614.0 785.0 L 622.0 783.0 L 626.0 787.0 L 613.0 791.0 L 612.0 800.0 L 629.0 801.0 L 629.0 784.0 L 622.0 780.0 Z M 615.0 797.0 L 618.0 792.0 L 626.0 794.0 L 622.0 799.0 Z M 546.0 782.0 L 542.0 788.0 L 544.0 798.0 L 551.0 802.0 L 560.0 801.0 L 561.0 798.0 L 551.0 799.0 L 547.0 793.0 L 562.0 792.0 L 562.0 785.0 L 555.0 780.0 Z M 546.0 787.0 L 550.0 783.0 L 555.0 783.0 L 559.0 788.0 Z M 465.0 781.0 L 448.0 781.0 L 448.0 801.0 L 452.0 801.0 L 452.0 786.0 L 457.0 783.0 L 464.0 786.0 L 465.0 801.0 L 468.0 801.0 L 468.0 785.0 Z M 422.0 782.0 L 418.0 789.0 L 421.0 799.0 L 427.0 802.0 L 437.0 801.0 L 437.0 798.0 L 427.0 799.0 L 423.0 793.0 L 438.0 792.0 L 438.0 784.0 L 431.0 780.0 Z M 423.0 786.0 L 432.0 783.0 L 435.0 788.0 L 424.0 789.0 Z M 380.0 781.0 L 380.0 801.0 L 384.0 801.0 L 384.0 787.0 L 389.0 783.0 L 393.0 786.0 L 393.0 801.0 L 397.0 801.0 L 397.0 787.0 L 402.0 783.0 L 407.0 787.0 L 407.0 801.0 L 411.0 800.0 L 411.0 787.0 L 407.0 781.0 Z M 357.0 781.0 L 352.0 786.0 L 353.0 797.0 L 360.0 802.0 L 370.0 801.0 L 371.0 798.0 L 361.0 799.0 L 356.0 794.0 L 372.0 792.0 L 371.0 784.0 L 365.0 780.0 Z M 356.0 787.0 L 360.0 783.0 L 368.0 786.0 L 367.0 789.0 Z M 315.0 782.0 L 315.0 785.0 L 324.0 783.0 L 327.0 788.0 L 316.0 790.0 L 313.0 799.0 L 317.0 802.0 L 332.0 801.0 L 331.0 784.0 L 325.0 780.0 Z M 317.0 797.0 L 320.0 792.0 L 328.0 794.0 L 323.0 799.0 Z M 267.0 782.0 L 267.0 785.0 L 276.0 783.0 L 279.0 788.0 L 268.0 790.0 L 265.0 799.0 L 269.0 802.0 L 284.0 801.0 L 283.0 784.0 L 277.0 780.0 Z M 269.0 797.0 L 272.0 792.0 L 280.0 794.0 L 276.0 799.0 Z M 1117.0 774.0 L 1111.0 783.0 L 1116.0 785.0 L 1116.0 798.0 L 1126.0 802.0 L 1128.0 800.0 L 1120.0 796.0 L 1120.0 786.0 L 1127.0 781.0 L 1122.0 781.0 L 1120.0 774.0 Z M 948.0 774.0 L 942.0 783.0 L 947.0 785.0 L 948.0 799.0 L 957.0 802.0 L 959.0 800.0 L 951.0 796.0 L 951.0 786.0 L 958.0 781.0 L 953.0 781.0 L 951.0 774.0 Z M 480.0 774.0 L 479.0 779.0 L 474.0 782.0 L 479.0 785.0 L 480.0 799.0 L 489.0 802.0 L 491.0 800.0 L 483.0 796.0 L 483.0 786.0 L 490.0 781.0 L 485.0 781.0 L 483.0 774.0 Z M 1060.0 771.0 L 1059.0 801.0 L 1079.0 801.0 L 1078.0 798.0 L 1063.0 796.0 L 1064.0 788.0 L 1077.0 787.0 L 1076.0 784.0 L 1065.0 784.0 L 1063.0 776.0 L 1079.0 772.0 Z M 838.0 771.0 L 834.0 772.0 L 836.0 802.0 Z M 606.0 771.0 L 587.0 772.0 L 587.0 801.0 L 591.0 801.0 L 593.0 788.0 L 604.0 787.0 L 603.0 784.0 L 593.0 784.0 L 592.0 775.0 L 606.0 774.0 Z M 237.0 771.0 L 237.0 801.0 L 242.0 800.0 L 243.0 789.0 L 247.0 789.0 L 256.0 801.0 L 260.0 801.0 L 253.0 789.0 L 259.0 782.0 L 258.0 775.0 L 253.0 771.0 Z M 244.0 774.0 L 254.0 777.0 L 251.0 785.0 L 242.0 784.0 Z M 1186.0 770.0 L 1184.0 774.0 L 1188.0 775.0 L 1189.0 772.0 Z M 1150.0 770.0 L 1147.0 770.0 L 1144.0 776.0 Z M 969.0 770.0 L 967.0 774.0 L 971.0 775.0 L 972.0 772.0 Z M 905.0 770.0 L 905.0 801.0 L 908.0 801.0 L 909.0 771.0 Z M 713.0 770.0 L 710.0 771.0 L 709.0 781.0 L 701.0 780.0 L 693.0 785.0 L 692.0 795.0 L 697.0 801.0 L 714.0 800.0 Z M 701.0 783.0 L 710.0 786.0 L 710.0 795.0 L 705.0 799.0 L 699.0 798.0 L 696.0 794.0 L 696.0 788.0 Z M 534.0 770.0 L 530.0 771.0 L 529.0 781.0 L 522.0 780.0 L 514.0 784.0 L 512.0 794.0 L 517.0 801.0 L 534.0 801.0 Z M 522.0 783.0 L 530.0 786.0 L 530.0 796.0 L 526.0 799.0 L 521.0 799.0 L 516.0 793.0 L 517.0 787.0 Z M 341.0 770.0 L 340.0 801.0 L 344.0 801.0 L 344.0 770.0 Z M 1180.0 646.0 L 1212.0 719.0 L 1222.0 727.0 L 1236.0 730.0 L 1255.0 729.0 L 1270.0 720.0 L 1301.0 648.0 L 1274.0 648.0 L 1252.0 704.0 L 1240.0 710.0 L 1231.0 704.0 L 1206.0 646.0 Z M 1055.0 666.0 L 1052.0 679.0 L 1053.0 703.0 L 1059.0 715.0 L 1074.0 726.0 L 1085.0 729.0 L 1139.0 729.0 L 1158.0 722.0 L 1169.0 708.0 L 1169.0 668.0 L 1161.0 656.0 L 1147.0 648.0 L 1085.0 646.0 L 1068.0 652.0 Z M 1079.0 671.0 L 1086.0 664.0 L 1095.0 661.0 L 1133.0 662.0 L 1139.0 665.0 L 1146.0 675.0 L 1145.0 704.0 L 1140.0 710.0 L 1130.0 714.0 L 1090.0 713.0 L 1083.0 709.0 L 1078.0 701.0 Z M 919.0 646.0 L 920.0 729.0 L 942.0 729.0 L 944.0 672.0 L 1003.0 729.0 L 1036.0 728.0 L 1035.0 646.0 L 1012.0 647.0 L 1011.0 704.0 L 952.0 647.0 Z M 810.0 659.0 L 804.0 673.0 L 804.0 700.0 L 807.0 710.0 L 815.0 720.0 L 839.0 729.0 L 904.0 729.0 L 904.0 713.0 L 840.0 712.0 L 832.0 707.0 L 829.0 699.0 L 831.0 695.0 L 900.0 695.0 L 899.0 678.0 L 831.0 678.0 L 829.0 674.0 L 831.0 668.0 L 841.0 662.0 L 904.0 662.0 L 904.0 646.0 L 836.0 646.0 L 823.0 649.0 Z M 692.0 647.0 L 693.0 729.0 L 717.0 728.0 L 718.0 662.0 L 761.0 663.0 L 768.0 674.0 L 762.0 684.0 L 725.0 687.0 L 770.0 728.0 L 798.0 729.0 L 770.0 702.0 L 784.0 696.0 L 791.0 684.0 L 791.0 663.0 L 782.0 651.0 L 768.0 646.0 Z M 602.0 646.0 L 601.0 727.0 L 625.0 729.0 L 625.0 646.0 Z M 488.0 729.0 L 512.0 729.0 L 512.0 703.0 L 515.0 700.0 L 564.0 700.0 L 579.0 694.0 L 589.0 678.0 L 585.0 658.0 L 578.0 651.0 L 563.0 646.0 L 488.0 646.0 Z M 512.0 664.0 L 555.0 662.0 L 563.0 668.0 L 564.0 677.0 L 555.0 684.0 L 514.0 684.0 Z M 352.0 728.0 L 379.0 729.0 L 404.0 669.0 L 409.0 665.0 L 422.0 665.0 L 430.0 673.0 L 453.0 729.0 L 480.0 729.0 L 450.0 657.0 L 436.0 646.0 L 396.0 646.0 L 389.0 649.0 L 380.0 661.0 Z M 255.0 647.0 L 255.0 700.0 L 259.0 713.0 L 266.0 721.0 L 286.0 729.0 L 344.0 729.0 L 342.0 712.0 L 293.0 712.0 L 285.0 708.0 L 280.0 700.0 L 280.0 648.0 Z M 553.0 506.0 L 554.0 587.0 L 734.0 587.0 L 733.0 544.0 L 605.0 478.0 Z M 468.0 457.0 L 469.0 587.0 L 511.0 586.0 L 511.0 479.0 L 603.0 427.0 L 777.0 519.0 L 780.0 523.0 L 781.0 586.0 L 824.0 586.0 L 822.0 497.0 L 604.0 379.0 L 591.0 384.0 Z M 468.0 354.0 L 469.0 401.0 L 601.0 327.0 L 867.0 471.0 L 870.0 474.0 L 870.0 586.0 L 913.0 586.0 L 913.0 449.0 L 614.0 283.0 L 600.0 277.0 Z M 468.0 251.0 L 469.0 300.0 L 600.0 225.0 L 958.0 423.0 L 961.0 587.0 L 1069.0 587.0 L 1069.0 349.0 L 727.0 156.0 L 724.0 156.0 L 722.0 242.0 L 600.0 173.0 Z M 619.0 131.0 L 650.0 149.0 L 726.0 106.0 L 992.0 258.0 L 1000.0 260.0 L 1000.0 227.0 L 726.0 68.0 Z " fill="#fff" fill-rule="evenodd"/>
</svg>
